<svg width="550" height="550" viewBox="0 0 550 550" fill="none" xmlns="http://www.w3.org/2000/svg">
<path fill-rule="evenodd" clip-rule="evenodd" d="M118 149C118 141.268 124.268 135 132 135H218C225.732 135 232 141.268 232 149V183.381L272.855 142.526C275.412 139.168 279.453 137 284 137H417C424.648 137 430.863 143.132 430.998 150.747C431.292 154.672 429.938 158.697 426.937 161.698L329.058 259.577L423.672 391.086C428.188 397.362 426.76 406.111 420.484 410.626C419.853 411.08 419.198 411.474 418.524 411.808C416.351 413.196 413.769 414 411 414H300C298.786 414 297.608 413.845 296.485 413.555C293.254 412.832 290.266 410.968 288.181 408.07L242.316 344.319L207.699 378.937C202.231 384.404 193.367 384.404 187.899 378.937C182.432 373.469 182.432 364.605 187.899 359.138L233.909 313.128C237.001 310.036 241.18 308.692 245.216 309.098C249.232 309.371 253.101 311.367 255.636 314.89L306.797 386H385.52L299.456 266.375C297.368 263.474 296.551 260.045 296.895 256.75C297.175 253.593 298.524 250.513 300.94 248.097L384.037 165H289.979L227.698 227.281C222.231 232.748 213.367 232.748 207.899 227.281C204.56 223.942 203.261 219.336 204 215.01V163H146V268.381L165.481 248.9C170.949 243.432 179.813 243.432 185.28 248.9C190.748 254.367 190.748 263.231 185.28 268.698L141.987 311.992C136.52 317.459 127.655 317.459 122.188 311.992C122.136 311.94 122.085 311.888 122.035 311.836C121.981 311.781 121.928 311.725 121.875 311.669C119.474 309.156 118 305.75 118 302V149Z" fill="#4A7285"/>
</svg>
