<svg width="117" height="104" viewBox="0 0 117 104" fill="none" xmlns="http://www.w3.org/2000/svg">
<path fill-rule="evenodd" clip-rule="evenodd" d="M0 5.21864C0 2.33646 2.34274 0 5.2326 0H37.3757C40.2656 0 42.6083 2.33646 42.6083 5.21864V18.0345L57.8782 2.80544C58.8339 1.55356 60.3442 0.74552 62.0437 0.74552H111.753C114.612 0.74552 116.935 3.03122 116.985 5.86989C117.095 7.33293 116.589 8.83333 115.467 9.95213L78.8845 46.4373L114.247 95.4586C115.935 97.798 115.401 101.059 113.056 102.742C112.82 102.912 112.575 103.058 112.323 103.183C111.511 103.7 110.546 104 109.511 104H68.0238C67.5701 104 67.1298 103.942 66.7101 103.834C65.5025 103.565 64.3857 102.87 63.6064 101.79L46.464 78.0257L33.5255 90.9299C31.482 92.9678 28.1689 92.9678 26.1255 90.9299C24.082 88.8917 24.082 85.5875 26.1255 83.5496L43.3218 66.399C44.4775 65.2464 46.0394 64.7454 47.5479 64.8967C49.0489 64.9985 50.495 65.7425 51.4425 67.0558L70.5643 93.5627H99.9876L67.8205 48.9713C67.0401 47.8899 66.7348 46.6118 66.8633 45.3835C66.968 44.2067 67.4722 43.0586 68.3752 42.158L99.4333 11.1828H64.2784L41.0004 34.3985C38.9571 36.4365 35.644 36.4365 33.6006 34.3985C32.3526 33.1538 31.8668 31.437 32.1431 29.8246V10.4373H10.4652V49.7191L17.7465 42.4573C19.79 40.4191 23.1031 40.4191 25.1465 42.4573C27.19 44.4952 27.19 47.7994 25.1465 49.8372L8.96536 65.9755C6.92191 68.0134 3.60878 68.0134 1.56534 65.9755C1.54604 65.9561 1.52697 65.9367 1.50808 65.9174C1.48796 65.8969 1.46807 65.876 1.44835 65.8551C0.551057 64.9184 0 63.6487 0 62.2509V5.21864Z" fill="white"/>
</svg>
